<?xml version="1.0" ?><svg id="Message_And_Communication_Icons" style="enable-background:new 0 0 50 50;" version="1.1" viewBox="0 0 50 50" xml:space="preserve" xmlns="http://www.w3.org/2000/svg" xmlns:xlink="http://www.w3.org/1999/xlink"><g><g><g><g><path d="M28.8,14.2c0.7-0.1,1.4-0.2,2.2-0.3c-1.3-2.7-3.5-5-6.2-6.3C26.7,9.4,28.1,11.7,28.8,14.2z" style="fill:#4DE0F9;"/></g></g></g><g><g><g><path d="M8.5,35.2V29C5.6,26.3,4,22.6,4,18.7C4,11,10.2,4.7,17.9,4.7c6.3,0,11.9,4.3,13.5,10.4l-1.2,0.3      c-1.5-5.6-6.5-9.5-12.3-9.5c-7,0-12.7,5.7-12.7,12.7c0,3.7,1.6,7.2,4.4,9.6l0.2,0.2v3.9l2.3-2.3l0.4,0.2c1.3,0.6,2.7,1,4.2,1.2      l-0.1,1.2c-1.4-0.1-2.8-0.5-4.2-1.1L8.5,35.2z" style="fill:#0D5FC3;"/></g></g></g><g><g><g><path d="M35.8,41.5c-1.7,0.8-3.7,1.3-5.7,1.3c-2.1,0-4.1-0.5-5.8-1.4c2.4,2.1,5.4,3.4,8.8,3.4      c1.8,0,3.5-0.4,5-1L35.8,41.5z" style="fill:#4DE0F9;"/></g></g><g><g><path d="M38.9,19.5c2.8,2.4,4.5,6,4.5,10c0,4-1.8,7.6-4.6,10v4.1l3,3v-5.1c2.8-2.4,4.6-6,4.6-10      C46.4,26.2,43.4,21.7,38.9,19.5z" style="fill:#4DE0F9;"/></g></g></g><g><g><g><path d="M41.5,47l-3.8-3.8c-1.8,0.8-3.7,1.2-5.6,1.2c-7.7,0-13.9-6.3-13.9-13.9c0-7.7,6.3-13.9,13.9-13.9      c7.7,0,13.9,6.3,13.9,13.9c0,3.9-1.7,7.7-4.6,10.3V47z M37.9,41.8l2.3,2.3v-3.9l0.2-0.2c2.8-2.4,4.4-5.9,4.4-9.6      c0-7-5.7-12.7-12.7-12.7s-12.7,5.7-12.7,12.7s5.7,12.7,12.7,12.7c1.9,0,3.7-0.4,5.5-1.2L37.9,41.8z" style="fill:#0D5FC3;"/></g></g></g><g><g><g><path d="M21.7,28.9l-1.2-0.2c0.3-1.5,0.8-3,1.7-4.3l1,0.7C22.4,26.2,21.9,27.5,21.7,28.9z" style="fill:#4DE0F9;"/></g></g><g><g><path d="M24,24L23,23.3c0.3-0.4,0.6-0.7,1-1l0.8,0.9C24.5,23.4,24.2,23.7,24,24z" style="fill:#4DE0F9;"/></g></g></g><g><g><g><rect height="1.2" style="fill:#0D5FC3;" width="5.7" x="12.5" y="14.8"/></g></g><g><g><rect height="1.2" style="fill:#0D5FC3;" width="3.2" x="20.3" y="14.8"/></g></g><g><g><rect height="1.2" style="fill:#0D5FC3;" width="7" x="12.5" y="18.3"/></g></g><g><g><rect height="1.2" style="fill:#0D5FC3;" width="4.9" x="12.5" y="21.7"/></g></g></g><g><g><g><rect height="1.2" style="fill:#0D5FC3;" width="2.3" x="35.2" y="27"/></g></g><g><g><rect height="1.2" style="fill:#0D5FC3;" width="6.6" x="26.4" y="27"/></g></g><g><g><rect height="1.2" style="fill:#0D5FC3;" width="4.2" x="33.2" y="30.5"/></g></g><g><g><rect height="1.2" style="fill:#0D5FC3;" width="4.5" x="26.4" y="30.5"/></g></g><g><g><rect height="1.2" style="fill:#0D5FC3;" width="11" x="26.4" y="34"/></g></g></g></g></svg>